Coordinates
version=1
nRows=12
nColumns=34
inDegrees=no

Units are S.I. units (second, meters, Newtons, ...)
If the header above contains a line with 'inDegrees', this indicates whether rotational values are in degrees (yes) or radians (no).

endheader
time	pelvis_tilt	pelvis_list	pelvis_rotation	pelvis_tx	pelvis_ty	pelvis_tz	hip_flexion_r	hip_adduction_r	hip_rotation_r	knee_angle_r	ankle_angle_r	subtalar_angle_r	mtp_angle_r	hip_flexion_l	hip_adduction_l	hip_rotation_l	knee_angle_l	ankle_angle_l	subtalar_angle_l	mtp_angle_l	lumbar_extension	lumbar_bending	lumbar_rotation	arm_flex_r	arm_add_r	arm_rot_r	elbow_flex_r	pro_sup_r	arm_flex_l	arm_add_l	arm_rot_l	elbow_flex_l	pro_sup_l
0.45	-0.0652356	-0.176434	0.0521342	0.349588	0.936499	-0.199248	-0.0482123	0.217956	-0.148895	0.0702361	0.266511	0.113485	-0.101972	0.60189	-0.154799	0.103066	0.796685	0.203585	-0.236993	-0.101636	-0.145227	0.459608	-0.0902594	-0.137493	-0.284245	-0.311651	0.722168	1.54479	-0.168122	-0.127682	-0.0788773	0.889054	1.95631
0.46	-0.0648395	-0.176377	0.0517982	0.357452	0.935763	-0.198216	-0.0588801	0.219879	-0.149383	0.068298	0.270973	0.118557	-0.101977	0.608771	-0.154082	0.0939141	0.749068	0.216281	-0.193154	-0.101612	-0.14392	0.449926	-0.0825228	-0.134632	-0.282754	-0.305331	0.722726	1.54397	-0.173085	-0.129739	-0.0844316	0.879278	1.9568
0.47	-0.0653662	-0.175784	0.0509023	0.36536	0.934902	-0.197173	-0.0675175	0.220808	-0.152075	0.0687072	0.277292	0.126283	-0.101981	0.614188	-0.153048	0.0822297	0.698304	0.228316	-0.145703	-0.101589	-0.141716	0.439399	-0.0744153	-0.131631	-0.280993	-0.299868	0.72272	1.54293	-0.17811	-0.131568	-0.0907849	0.86892	1.95924
0.48	-0.066476	-0.174495	0.0495767	0.373331	0.933945	-0.19614	-0.0745569	0.220525	-0.157164	0.0714348	0.285494	0.13676	-0.101986	0.617577	-0.151344	0.0681436	0.644276	0.23941	-0.095748	-0.101566	-0.138918	0.427895	-0.0660251	-0.128514	-0.278944	-0.295256	0.722197	1.54164	-0.183139	-0.133194	-0.0979331	0.857999	1.96374
0.49	-0.0678597	-0.172396	0.0479176	0.381385	0.932919	-0.195137	-0.0804452	0.218871	-0.164724	0.0763604	0.295475	0.149999	-0.10199	0.618523	-0.148665	0.0519569	0.587099	0.249252	-0.0446241	-0.101542	-0.135811	0.415326	-0.0574166	-0.125307	-0.276602	-0.291446	0.721205	1.54015	-0.188144	-0.134658	-0.105822	0.846578	1.9702
0.5	-0.0692379	-0.169411	0.0459924	0.389539	0.931845	-0.194172	-0.0856192	0.215715	-0.174849	0.0833335	0.307089	0.166123	-0.101995	0.616786	-0.144764	0.0341615	0.527201	0.257555	0.00621395	-0.101519	-0.132662	0.401642	-0.0486371	-0.122033	-0.273969	-0.288354	0.719795	1.53853	-0.19312	-0.136011	-0.11437	0.83474	1.97845
0.51	-0.0703547	-0.165499	0.0438506	0.397811	0.930743	-0.193257	-0.0905133	0.210962	-0.187614	0.0921632	0.320147	0.185305	-0.101999	0.612313	-0.13947	0.0154514	0.465368	0.264111	0.055298	-0.101496	-0.129722	0.386825	-0.0397248	-0.118711	-0.271055	-0.285873	0.71802	1.53684	-0.198082	-0.137318	-0.123476	0.822582	1.98821
0.52	-0.0709779	-0.16065	0.0415339	0.406218	0.92963	-0.1924	-0.0955462	0.204547	-0.20308	0.102635	0.334439	0.207756	-0.102004	0.605221	-0.132704	-0.00329231	0.402726	0.268837	0.101242	-0.101472	-0.127222	0.370887	-0.0307152	-0.115359	-0.26787	-0.283877	0.715939	1.53518	-0.20305	-0.138646	-0.133024	0.810206	1.99915
0.53	-0.0709072	-0.15488	0.0390831	0.414773	0.928525	-0.191602	-0.101085	0.196432	-0.221335	0.114552	0.34977	0.233751	-0.102008	0.595767	-0.124482	-0.0210429	0.340662	0.27178	0.142809	-0.101449	-0.125362	0.353861	-0.0216445	-0.11199	-0.264424	-0.28223	0.713604	1.53366	-0.208037	-0.140067	-0.1429	0.797694	2.01094
0.54	-0.0699895	-0.148233	0.03654	0.423483	0.927443	-0.190862	-0.107452	0.186656	-0.24225	0.127649	0.365863	0.263284	-0.102013	0.584309	-0.114926	-0.036693	0.280698	0.273116	0.178955	-0.101425	-0.124295	0.335807	-0.0125489	-0.108616	-0.260729	-0.280794	0.71106	1.53239	-0.213037	-0.141648	-0.152976	0.785124	2.02308
0.55	-0.0681358	-0.140801	0.0339433	0.432358	0.926396	-0.190174	-0.114922	0.175377	-0.26531	0.14154	0.382293	0.29582	-0.102017	0.571281	-0.104271	-0.0491787	0.224382	0.273125	0.20889	-0.101402	-0.124102	0.316831	-0.00345749	-0.105248	-0.256797	-0.279436	0.708337	1.5315	-0.218021	-0.143448	-0.163106	0.772569	2.03488
0.56	-0.0653338	-0.132725	0.0313226	0.4414	0.925396	-0.18953	-0.123713	0.162894	-0.28956	0.155697	0.398472	0.330222	-0.102021	0.557179	-0.0928638	-0.057658	0.173195	0.272183	0.232166	-0.101378	-0.124785	0.297083	0.00561607	-0.10191	-0.252644	-0.278041	0.705465	1.53112	-0.222945	-0.14551	-0.173125	0.760099	2.04541
